# xmcd CD database file
#
# Track frame offsets:
#	150
#	16168
#	42948
#	61791
#	75851
#	89143
#	108321
#	136979
#	152559
#	174269
#	191524
#	217409
#
# Disc length: 3161 seconds
#
# Revision: 0
# Processed by: cddbd v1.5.1PL0 Copyright (c) Steve Scherf et al.
# Submitted via: CDex 1.51
#
DISCID=950c570c
DTITLE=Claire Martin - Secret Love
DYEAR=2004
DGENRE=Jazz
TTITLE0=Secret Love
TTITLE1=But Beautiful
TTITLE2=The Meaning of the Blues
TTITLE3=Jive
TTITLE4=Love is a Bore
TTITLE5=Where Do You Start?
TTITLE6=God Give Me Strength
TTITLE7=Get Happy
TTITLE8=My Buddy
TTITLE9=Cheek to Cheek
TTITLE10=Don't Misunderstand
TTITLE11=Something Cool
EXTD=YEAR: 2004
EXTT0=
EXTT1=
EXTT2=
EXTT3=
EXTT4=
EXTT5=
EXTT6=
EXTT7=
EXTT8=
EXTT9=
EXTT10=
EXTT11=
PLAYORDER=
